<svg width="0" height="0" style="position:absolute;overflow:hidden" aria-hidden="true">
  <defs>
    <symbol id="wd-icon-notifications" viewBox="0 0 24 24"><path fill="transparent" d="M12 2a2 2 0 0 1 2 2c0 .161.093.312.245.363C16.447 5.104 18 6.9 18 9v2.307c0 1.898 1.13 3.573 2.593 4.781l.239.202a.5.5 0 0 1 .168.371v.839a.5.5 0 0 1-.5.5h-17a.5.5 0 0 1-.5-.5v-.839a.5.5 0 0 1 .168-.371q.118-.102.239-.202C4.87 14.88 6 13.205 6 11.307V9c0-2.1 1.553-3.896 3.754-4.637A.38.38 0 0 0 10 4a2 2 0 0 1 2-2" class="wd-icon-background"/><path fill="currentColor" d="M16 19a4 4 0 0 1-8 0H3.5A1.5 1.5 0 0 1 2 17.5v-.839c0-.425.181-.839.514-1.127l.256-.217C4.105 14.214 5 12.795 5 11.307V9c0-2.49 1.73-4.511 4.031-5.436a3 3 0 0 1 5.937 0C17.269 4.488 19 6.51 19 9v2.307c0 1.488.895 2.907 2.23 4.01q.13.108.256.217c.333.288.514.702.514 1.127v.839a1.5 1.5 0 0 1-1.5 1.5zm-6 0a2 2 0 0 0 4 0zm2-16a1 1 0 0 0-1 1c0 .524-.309 1.102-.927 1.31C8.171 5.952 7 7.435 7 9v2.307c0 2.307-1.366 4.238-2.957 5.552L4 16.895V17h16v-.105l-.043-.036C18.366 15.545 17 13.614 17 11.307V9c0-1.566-1.17-3.049-3.073-3.69C13.304 5.102 13 4.52 13 4a1 1 0 0 0-1-1" class="wd-icon-fill"/></symbol>
    <symbol id="wd-icon-inbox-fill" viewBox="0 0 24 24"><path fill="transparent" d="m2 12 4-8h12l4 8v7H2z" class="wd-icon-background"/><path fill="currentColor" d="M7.758 12a4.5 4.5 0 0 0 8.484 0H22v7H2v-7z" class="wd-icon-accent"/><path fill="currentColor" d="M18.14 3.01a1 1 0 0 1 .755.543l3.994 7.988q.025.051.046.104l.014.045a1 1 0 0 1 .044.205Q23 11.947 23 12v7a1 1 0 0 1-1 1H2a1 1 0 0 1-1-1v-7q.002-.23.095-.425l.01-.022 4-8 .072-.121A1 1 0 0 1 6 3h12zM3 18h18v-5h-4.103a5.495 5.495 0 0 1-9.793 0H3zm.618-7h4.14l.156.013a1 1 0 0 1 .786.654 3.5 3.5 0 0 0 6.6 0l.063-.144a1 1 0 0 1 .88-.523h4.139l-3-6H6.618z" class="wd-icon-fill"/></symbol>
    <symbol id="wd-icon-search" viewBox="0 0 24 24"><path fill="currentColor" d="M11 2a9 9 0 0 1 7.03 14.616l4.323 4.323a.5.5 0 0 1 0 .707l-.707.707a.5.5 0 0 1-.707 0l-4.323-4.323A9 9 0 1 1 11 2m0 2a7 7 0 1 0 0 14 7 7 0 0 0 0-14" class="wd-icon-fill"/></symbol>
    <symbol id="wd-icon-user-focus" viewBox="0 0 24 24"><path fill="currentColor" d="M3.5 16a.5.5 0 0 1 .5.5V20h3.5a.5.5 0 0 1 .5.5v1a.5.5 0 0 1-.5.5h-4A1.5 1.5 0 0 1 2 20.5v-4a.5.5 0 0 1 .5-.5zM21.5 16a.5.5 0 0 1 .5.5v4a1.5 1.5 0 0 1-1.5 1.5h-4a.5.5 0 0 1-.5-.5v-1a.5.5 0 0 1 .5-.5H20v-3.5a.5.5 0 0 1 .5-.5zM12 6a3 3 0 0 1 3 3 2.99 2.99 0 0 1-1.049 2.275 7 7 0 0 1 2.716 1.507c.212.19.333.461.333.745V16a1 1 0 0 1-1 1H8a1 1 0 0 1-1-1v-2.473c0-.284.121-.555.333-.745a7 7 0 0 1 2.715-1.507A3 3 0 0 1 12 6m0 7a4.97 4.97 0 0 0-3 1v1h6v-1a4.97 4.97 0 0 0-3-1m0-5a1 1 0 1 0 0 2 1 1 0 0 0 0-2M7.5 2a.5.5 0 0 1 .5.5v1a.5.5 0 0 1-.5.5H4v3.5a.5.5 0 0 1-.5.5h-1a.5.5 0 0 1-.5-.5v-4A1.5 1.5 0 0 1 3.5 2zM20.5 2A1.5 1.5 0 0 1 22 3.5v4a.5.5 0 0 1-.5.5h-1a.5.5 0 0 1-.5-.5V4h-3.5a.5.5 0 0 1-.5-.5v-1a.5.5 0 0 1 .5-.5z" class="wd-icon-fill"/></symbol>
    <symbol id="wd-icon-document" viewBox="0 0 24 24"><path fill="transparent" d="M5 2.5v19a.5.5 0 0 0 .5.5h13a.5.5 0 0 0 .5-.5V6.207a.5.5 0 0 0-.146-.353l-3.708-3.708A.5.5 0 0 0 14.793 2H5.5a.5.5 0 0 0-.5.5" class="wd-icon-background"/><path fill="currentColor" d="M14.793 1a1.5 1.5 0 0 1 1.06.44l3.708 3.706A1.5 1.5 0 0 1 20 6.207V21.5a1.5 1.5 0 0 1-1.5 1.5h-13A1.5 1.5 0 0 1 4 21.5v-19A1.5 1.5 0 0 1 5.5 1zM6 21h12V7h-3.5a.5.5 0 0 1-.5-.5V3H6z" class="wd-icon-fill"/><path fill="currentColor" d="M16 9.5a.5.5 0 0 1-.5.5h-7a.5.5 0 0 1-.5-.5v-1a.5.5 0 0 1 .5-.5h7a.5.5 0 0 1 .5.5zM13 6.5a.5.5 0 0 1-.5.5h-4a.5.5 0 0 1-.5-.5v-1a.5.5 0 0 1 .5-.5h4a.5.5 0 0 1 .5.5z" class="wd-icon-accent"/></symbol>
    <symbol id="wd-icon-document-task" viewBox="0 0 24 24"><path fill="transparent" d="M18.5 2h-13a.5.5 0 0 0-.5.5v19a.5.5 0 0 0 .5.5h13a.5.5 0 0 0 .5-.5v-19a.5.5 0 0 0-.5-.5" class="wd-icon-background"/><path fill="currentColor" d="M18.5 1A1.5 1.5 0 0 1 20 2.5v19a1.5 1.5 0 0 1-1.5 1.5h-13A1.5 1.5 0 0 1 4 21.5v-19A1.5 1.5 0 0 1 5.5 1zM6 21h12V3H6z" class="wd-icon-fill"/><path fill="currentColor" d="M15.5 16a.5.5 0 0 1 .5.5v1a.5.5 0 0 1-.5.5h-7a.5.5 0 0 1-.5-.5v-1a.5.5 0 0 1 .5-.5zM15.5 13a.5.5 0 0 1 .5.5v1a.5.5 0 0 1-.5.5h-7a.5.5 0 0 1-.5-.5v-1a.5.5 0 0 1 .5-.5z" class="wd-icon-accent"/></symbol>
    <symbol id="wd-icon-exclamation-triangle" viewBox="0 0 24 24"><path fill="transparent" d="M2.866 19h18.268a.5.5 0 0 0 .433-.75L12.433 2.43a.5.5 0 0 0-.866 0L2.433 18.25a.5.5 0 0 0 .433.75" class="wd-icon-background"/><path fill="currentColor" d="M10.82 1.754a1.5 1.5 0 0 1 2.36 0l.119.176 9.134 15.82a1.5 1.5 0 0 1-1.3 2.25H2.867a1.5 1.5 0 0 1-1.299-2.25l9.134-15.82zM3.73 18H20.27L12 3.68z" class="wd-icon-fill"/><path fill="currentColor" d="M12 14.75a1.25 1.25 0 1 1 0 2.5 1.25 1.25 0 0 1 0-2.5M12.5 8a.5.5 0 0 1 .5.5v1.34l-.17 3.683a.5.5 0 0 1-.5.477h-.66a.5.5 0 0 1-.5-.477L11 9.84V8.5a.5.5 0 0 1 .5-.5z" class="wd-icon-accent"/></symbol>
    <symbol id="wd-icon-comment" viewBox="0 0 24 24"><path fill="transparent" d="M18 3.998a3 3 0 0 1 3 2.999v7a3 3 0 0 1-3 3H9.848c-.226.899-.69 1.751-1.393 2.455A5.28 5.28 0 0 1 5 20.997v-4.175a3 3 0 0 1-2-2.825v-7a3 3 0 0 1 3-3z" class="wd-icon-background"/><path fill="currentColor" d="M13 12.5a.5.5 0 0 1-.5.5h-5a.5.5 0 0 1-.5-.5v-1a.5.5 0 0 1 .5-.5h5a.5.5 0 0 1 .5.5zM17 9.5a.5.5 0 0 1-.5.5h-9a.5.5 0 0 1-.5-.5v-1a.5.5 0 0 1 .5-.5h9a.5.5 0 0 1 .5.5z" class="wd-icon-accent"/><path fill="currentColor" d="M18 2.997a4 4 0 0 1 4 4v7a4 4 0 0 1-4 4h-7.425a6.3 6.3 0 0 1-1.413 2.162 6.28 6.28 0 0 1-4.106 1.836A1 1 0 0 1 4 20.997v-3.543a3.99 3.99 0 0 1-2-3.457v-7a4 4 0 0 1 4-4zM6 4.998a2 2 0 0 0-2 2v7a2 2 0 0 0 1.334 1.882 1 1 0 0 1 .666.942v2.984a4.3 4.3 0 0 0 1.748-1.06 4.3 4.3 0 0 0 1.13-1.992l.055-.16a1 1 0 0 1 .915-.597H18a2 2 0 0 0 2-2v-7a2 2 0 0 0-2-1.999z" class="wd-icon-fill"/></symbol>
    <symbol id="wd-icon-check-circle" viewBox="0 0 24 24"><path fill="transparent" d="M22 12c0 5.523-4.477 10-10 10S2 17.523 2 12 6.477 2 12 2s10 4.477 10 10" class="wd-icon-background"/><path fill="currentColor" d="M12 1c6.075 0 11 4.925 11 11s-4.925 11-11 11S1 18.075 1 12 5.925 1 12 1m0 2a9 9 0 1 0 0 18 9 9 0 0 0 0-18" class="wd-icon-fill"/><path fill="currentColor" d="M15.94 8.146a.5.5 0 0 1 .706 0l.707.707a.5.5 0 0 1 0 .707l-.646.645v.001l-6 6a1 1 0 0 1-1.413 0l-1.35-1.35-.005-.003-1.793-1.793a.5.5 0 0 1 0-.707l.707-.707a.5.5 0 0 1 .707 0l2.44 2.44z" class="wd-icon-accent"/></symbol>
    <symbol id="wd-icon-clock" viewBox="0 0 24 24"><path fill="transparent" d="M22 12c0 5.523-4.477 10-10 10S2 17.523 2 12 6.477 2 12 2s10 4.477 10 10" class="wd-icon-background"/><path fill="currentColor" d="M12.5 5a.5.5 0 0 1 .5.5V11h3.5a.5.5 0 0 1 .5.5v1a.5.5 0 0 1-.5.5H12a1 1 0 0 1-1-1V5.5a.5.5 0 0 1 .5-.5z" class="wd-icon-accent"/><path fill="currentColor" d="M12 1c6.075 0 11 4.925 11 11s-4.925 11-11 11S1 18.075 1 12 5.925 1 12 1m0 2a9 9 0 1 0 0 18 9 9 0 0 0 0-18" class="wd-icon-fill"/></symbol>
    <symbol id="wd-icon-circle" viewBox="0 0 24 24"><path fill="transparent" d="M22 12c0 5.523-4.477 10-10 10S2 17.523 2 12 6.477 2 12 2s10 4.477 10 10" class="wd-icon-background"/><path fill="currentColor" d="M12 1c6.075 0 11 4.925 11 11s-4.925 11-11 11S1 18.075 1 12 5.925 1 12 1m0 2a9 9 0 1 0 0 18 9 9 0 0 0 0-18" class="wd-icon-fill"/></symbol>
    <symbol id="wd-icon-chevron-right-small" viewBox="0 0 24 24"><path fill="currentColor" d="M9.958 6.112a.5.5 0 0 1 .704.07l1.617 1.976.007.01 2.56 3.128a1 1 0 0 1 0 1.266l-4.184 5.113a.5.5 0 0 1-.704.071l-.775-.633a.5.5 0 0 1-.07-.704l3.666-4.48L9.92 8.437l.001-.001-.808-.988a.5.5 0 0 1 .07-.703z" class="wd-icon-fill"/></symbol>
    <symbol id="wd-icon-x" viewBox="0 0 24 24"><path fill="currentColor" d="M18.94 3.646a.5.5 0 0 1 .706 0l.707.707a.5.5 0 0 1 0 .707L13.414 12l6.94 6.94a.5.5 0 0 1 0 .706l-.708.707a.5.5 0 0 1-.707 0L12 13.414l-6.939 6.94a.5.5 0 0 1-.707 0l-.707-.708a.5.5 0 0 1 0-.707l6.94-6.94-6.94-6.939a.5.5 0 0 1 0-.707l.707-.707a.5.5 0 0 1 .707 0l6.94 6.94z" class="wd-icon-fill"/></symbol>
  </defs>
</svg>
